HIERARCHY
ROOT Hips
{
  OFFSET -4.35178 90.3298 111.633
  CHANNELS 6 Xposition Yposition Zposition Zrotation Xrotation Yrotation
  JOINT LeftUpLeg
  {
    OFFSET 0.103456 1.85784 10.5485
    CHANNELS 6 Xposition Yposition Zposition Zrotation Xrotation Yrotation
    JOINT LeftLeg
    {
      OFFSET 43.5 -4.2e-05 0
      CHANNELS 6 Xposition Yposition Zposition Zrotation Xrotation Yrotation
      JOINT LeftFoot
      {
        OFFSET 42.3722 1.9e-05 0
        CHANNELS 6 Xposition Yposition Zposition Zrotation Xrotation Yrotation
        JOINT LeftToe
        {
          OFFSET 17.3 0 0
          CHANNELS 6 Xposition Yposition Zposition Zrotation Xrotation Yrotation
          End Site
          {
            OFFSET 0 0 0
          }
        }
      }
    }
  }
  JOINT RightUpLeg
  {
    OFFSET 0.103456 1.85782 -10.5485
    CHANNELS 6 Xposition Yposition Zposition Zrotation Xrotation Yrotation
    JOINT RightLeg
    {
      OFFSET 43.5 -2.7e-05 0
      CHANNELS 6 Xposition Yposition Zposition Zrotation Xrotation Yrotation
      JOINT RightFoot
      {
        OFFSET 42.3723 0 0
        CHANNELS 6 Xposition Yposition Zposition Zrotation Xrotation Yrotation
        JOINT RightToe
        {
          OFFSET 17.3 0 1.7e-05
          CHANNELS 6 Xposition Yposition Zposition Zrotation Xrotation Yrotation
          End Site
          {
            OFFSET 0 0 0
          }
        }
      }
    }
  }
  JOINT Spine
  {
    OFFSET 6.90197 -2.60373 0
    CHANNELS 6 Xposition Yposition Zposition Zrotation Xrotation Yrotation
    JOINT Spine1
    {
      OFFSET 12.5881 0 0
      CHANNELS 6 Xposition Yposition Zposition Zrotation Xrotation Yrotation
      JOINT Spine2
      {
        OFFSET 12.3432 -1.8e-05 0
        CHANNELS 6 Xposition Yposition Zposition Zrotation Xrotation Yrotation
        JOINT Neck
        {
          OFFSET 25.8329 2.3e-05 0
          CHANNELS 6 Xposition Yposition Zposition Zrotation Xrotation Yrotation
          JOINT Head
          {
            OFFSET 11.7666 0 0
            CHANNELS 6 Xposition Yposition Zposition Zrotation Xrotation Yrotation
            End Site
            {
              OFFSET 0 0 0
            }
          }
        }
        JOINT LeftShoulder
        {
          OFFSET 19.7459 -1.48035 6.0001
          CHANNELS 6 Xposition Yposition Zposition Zrotation Xrotation Yrotation
          JOINT LeftArm
          {
            OFFSET 11.2841 1.8e-05 -2e-05
            CHANNELS 6 Xposition Yposition Zposition Zrotation Xrotation Yrotation
            JOINT LeftForeArm
            {
              OFFSET 33 -1.3e-05 1.9e-05
              CHANNELS 6 Xposition Yposition Zposition Zrotation Xrotation Yrotation
              JOINT LeftHand
              {
                OFFSET 25.2 3.2e-05 1.1e-05
                CHANNELS 6 Xposition Yposition Zposition Zrotation Xrotation Yrotation
                End Site
                {
                  OFFSET 0 0 0
                }
              }
            }
          }
        }
        JOINT RightShoulder
        {
          OFFSET 19.7461 -1.48036 -6.00008
          CHANNELS 6 Xposition Yposition Zposition Zrotation Xrotation Yrotation
          JOINT RightArm
          {
            OFFSET 11.2841 0 0
            CHANNELS 6 Xposition Yposition Zposition Zrotation Xrotation Yrotation
            JOINT RightForeArm
            {
              OFFSET 33.0001 1.6e-05 0
              CHANNELS 6 Xposition Yposition Zposition Zrotation Xrotation Yrotation
              JOINT RightHand
              {
                OFFSET 25.1998 0.000123 0.000432
                CHANNELS 6 Xposition Yposition Zposition Zrotation Xrotation Yrotation
                End Site
                {
                  OFFSET 0 0 0
                }
              }
            }
          }
        }
      }
    }
  }
}
MOTION
Frames:	7
Frame Time:	0.0333333
3.55676 90.2181 -0.828906 -61.6683 -77.6807 -149.302 0.103456 1.85784 10.5485 11.1493 6.03435 179.422 43.5 -4.2e-05 1e-05 -6.54724 -9.21309 -2.60248 42.3722 1.9e-05 0 76.4063 -5.67258 3.97132 17.3 -4.44089e-16 3e-06 21.4546 -1e-06 0.003093 0.103456 1.85782 -10.5485 1.41495 -1.09698 172.888 43.5 -2.7e-05 4e-06 -18.7338 7.98817 2.0712 42.3723 1.33227e-15 1e-05 81.3237 10.8375 -3.10116 17.3 -6e-06 1.7e-05 21.4546 -1.9e-05 -0.003116 6.90197 -2.60373 -3e-06 7.24016 -0.489085 -0.621091 12.5881 1e-05 8e-06 4.48737 -1.00727 -1.15983 12.3432 -1.8e-05 -5e-06 4.18802 -1.01032 -1.08472 25.8329 2.3e-05 7e-06 6.05941 1.47104 -10.8804 11.7666 -8e-06 -6e-06 -29.9056 -1.49894 12.8373 19.7459 -1.48035 6.0001 -175.862 4.08056 -91.3857 11.2841 1.8e-05 -2e-05 28.1883 -15.9422 10.0567 33 -1.3e-05 1.9e-05 -34.4824 -4.76726 -15.4321 25.2 3.2e-05 1.1e-05 12.4669 28.2326 -4.06863 19.7461 -1.48036 -6.00008 176.31 6.07179 94.3197 11.2841 -3.55271e-15 -1e-06 -12.8754 14.615 -6.69503 33.0001 1.6e-05 -1e-06 -18.2905 -0.593773 14.8693 25.1998 0.000123 0.000432 7.79993 -13.5117 2.91856 
3.55746 90.2182 -0.846859 -61.5531 -77.7259 -149.179 0.103456 1.85784 10.5485 11.1499 6.03504 179.417 43.5 -4.2e-05 1e-05 -6.54724 -9.21309 -2.60248 42.3722 1.9e-05 0 76.4036 -5.64374 3.95098 17.3 -1.33227e-15 3e-06 21.4546 -1e-06 0.003093 0.103456 1.85782 -10.5485 1.41838 -1.08653 172.879 43.5 -2.7e-05 4e-06 -18.7438 8.00865 2.0713 42.3723 -2.22045e-15 1e-05 81.3419 10.8537 -3.13642 17.3 -6e-06 1.7e-05 21.4546 -1.9e-05 -0.003116 6.90197 -2.60373 -3e-06 7.24016 -0.489085 -0.621091 12.5881 1e-05 8e-06 4.48744 -1.00727 -1.15594 12.3432 -1.8e-05 -5e-06 4.18808 -1.01032 -1.08079 25.8329 2.3e-05 7e-06 6.05923 1.47104 -10.8804 11.7666 -8e-06 -6e-06 -29.8702 -1.49456 12.8331 19.7459 -1.48035 6.0001 -175.899 4.08139 -91.4065 11.2841 1.8e-05 -2e-05 28.1503 -15.9696 10.0429 33 -1.3e-05 1.9e-05 -34.4738 -4.83895 -15.4167 25.2 3.2e-05 1.1e-05 12.4696 28.1944 -4.07425 19.7461 -1.48036 -6.00008 176.316 6.08044 94.3075 11.2841 0 -1e-06 -12.8911 14.5374 -6.66807 33.0001 1.6e-05 -1e-06 -18.2692 -0.630771 14.8694 25.1998 0.000123 0.000432 7.80641 -13.5329 2.91938 
3.5572 90.2178 -0.871406 -61.4696 -77.7724 -149.083 0.103456 1.85784 10.5485 11.1513 6.04527 179.404 43.5 -4.2e-05 1e-05 -6.54689 -9.20554 -2.60242 42.3722 1.9e-05 -1.77636e-15 76.4119 -5.61971 3.92778 17.3 -4.44089e-16 3e-06 21.4546 -1e-06 0.003093 0.103456 1.85782 -10.5485 1.43063 -1.07709 172.866 43.5 -2.7e-05 4e-06 -18.7277 8.02735 2.0714 42.3723 1.33227e-15 1e-05 81.3434 10.8641 -3.16412 17.3 -6e-06 1.7e-05 21.4546 -1.9e-05 -0.003116 6.90197 -2.60373 -3e-06 7.24016 -0.489085 -0.621091 12.5881 1e-05 8e-06 4.48162 -1.00727 -1.14968 12.3432 -1.8e-05 -5e-06 4.1823 -1.01033 -1.07435 25.8329 2.3e-05 7e-06 6.0797 1.46826 -10.8804 11.7666 -8e-06 -6e-06 -29.8063 -1.48524 12.8253 19.7459 -1.48035 6.0001 -175.932 4.08406 -91.4254 11.2841 1.8e-05 -2e-05 28.1111 -16.0055 10.117 33 -1.3e-05 1.9e-05 -34.5092 -4.87684 -15.4065 25.2 3.2e-05 1.1e-05 12.5075 28.1697 -4.09832 19.7461 -1.48036 -6.00008 176.313 6.08102 94.3067 11.2841 0 -1e-06 -12.8976 14.5511 -6.676 33.0001 1.6e-05 -1e-06 -18.2495 -0.673832 14.8695 25.1998 0.000123 0.000432 7.78061 -13.5608 2.93806 
3.55611 90.2148 -0.897137 -61.4388 -77.8048 -149.04 0.103456 1.85784 10.5485 11.1532 6.0225 179.391 43.5 -4.2e-05 1e-05 -6.54904 -9.20298 -2.6024 42.3722 1.9e-05 0 76.4104 -5.65139 3.9072 17.3 0 3e-06 21.4546 -1e-06 0.003093 0.103456 1.85782 -10.5485 1.44871 -1.0493 172.855 43.5 -2.7e-05 4e-06 -18.7272 8.04234 2.07148 42.3723 8.88178e-16 1e-05 81.3672 10.9092 -3.18426 17.3 -6e-06 1.7e-05 21.4546 -1.9e-05 -0.003116 6.90197 -2.60373 -3e-06 7.24016 -0.489085 -0.621091 12.5881 1e-05 8e-06 4.47537 -1.00728 -1.1409 12.3432 -1.8e-05 -5e-06 4.17607 -1.01033 -1.06528 25.8329 2.3e-05 7e-06 6.09426 1.48366 -10.8876 11.7666 -8e-06 -6e-06 -29.7937 -1.45508 12.822 19.7459 -1.48035 6.0001 -175.979 4.08674 -91.4542 11.2841 1.8e-05 -2e-05 28.1431 -16.0936 10.2239 33 -1.3e-05 1.9e-05 -34.5791 -4.9635 -15.3741 25.2 3.2e-05 1.1e-05 12.4768 28.1056 -4.0701 19.7461 -1.48036 -6.00008 176.304 6.08212 94.2889 11.2841 1.77636e-15 -1e-06 -12.9097 14.5503 -6.67899 33.0001 1.6e-05 -1e-06 -18.2542 -0.694329 14.8691 25.1998 0.000123 0.000432 7.74935 -13.573 2.95375 
3.55542 90.2074 -0.927513 -61.3972 -77.8258 -148.99 0.103456 1.85784 10.5485 11.1646 6.01594 179.385 43.5 -4.2e-05 1e-05 -6.55669 -9.19499 -2.60234 42.3722 1.9e-05 1.77636e-15 76.4213 -5.64016 3.89068 17.3 0 3e-06 21.4546 -1e-06 0.003093 0.103456 1.85782 -10.5485 1.4574 -1.03995 172.84 43.5 -2.7e-05 4e-06 -18.7502 8.05631 2.07155 42.3723 2.22045e-15 1e-05 81.3997 10.9186 -3.20195 17.3 -6e-06 1.7e-05 21.4546 -1.9e-05 -0.003116 6.90197 -2.60373 -3e-06 7.24926 -0.489085 -0.621091 12.5881 1e-05 8e-06 4.4935 -1.00727 -1.14171 12.3432 -1.8e-05 -5e-06 4.19411 -1.01033 -1.06668 25.8329 2.3e-05 7e-06 6.0847 1.50893 -10.8954 11.7666 -8e-06 -6e-06 -29.8325 -1.43391 12.8339 19.7459 -1.48035 6.0001 -176 4.08241 -91.4481 11.2841 1.8e-05 -2e-05 28.0908 -16.0913 10.2599 33 -1.3e-05 1.9e-05 -34.6206 -4.94067 -15.3876 25.2 3.2e-05 1.1e-05 12.4746 28.113 -4.09297 19.7461 -1.48036 -6.00008 176.297 6.10411 94.2403 11.2841 -1.77636e-15 -1e-06 -12.9403 14.47 -6.66938 33.0001 1.6e-05 -1e-06 -18.2561 -0.700584 14.8716 25.1998 0.000123 0.000432 7.73392 -13.5732 2.95666 
3.55523 90.2008 -0.962104 -61.3392 -77.8234 -148.93 0.103456 1.85784 10.5485 11.181 6.01145 179.384 43.5 -4.2e-05 1e-05 -6.56595 -9.18435 -2.60227 42.3722 1.9e-05 0 76.4417 -5.62318 3.89456 17.3 2.66454e-15 3e-06 21.4546 -1e-06 0.003093 0.103456 1.85782 -10.5485 1.46131 -1.02856 172.828 43.5 -2.7e-05 4e-06 -18.8167 8.06615 2.06965 42.3723 -8.88178e-16 1e-05 81.4494 10.9278 -3.21334 17.3 -6e-06 1.7e-05 21.4546 -1.9e-05 -0.003116 6.90197 -2.60373 -3e-06 7.26247 -0.489085 -0.621091 12.5881 1e-05 8e-06 4.51981 -1.00727 -1.14661 12.3432 -1.8e-05 -5e-06 4.22041 -1.01033 -1.07243 25.8329 2.3e-05 7e-06 6.07077 1.53139 -10.9013 11.7666 -8e-06 -6e-06 -29.9057 -1.44257 12.8655 19.7459 -1.48035 6.0001 -176.023 4.07528 -91.4122 11.2841 1.8e-05 -2e-05 28.0426 -16.078 10.261 33 -1.3e-05 1.9e-05 -34.6337 -4.9449 -15.382 25.2 3.2e-05 1.1e-05 12.5233 28.1216 -4.12031 19.7461 -1.48036 -6.00008 176.28 6.11083 94.1994 11.2841 3.55271e-15 -1e-06 -12.9494 14.473 -6.71554 33.0001 1.6e-05 -1e-06 -18.2812 -0.713378 14.8843 25.1998 0.000123 0.000432 7.72364 -13.5649 2.94307 
3.5543 90.1946 -1.00001 -61.2864 -77.8147 -148.876 0.103456 1.85784 10.5485 11.2 6.01935 179.378 43.5 -4.2e-05 1e-05 -6.60992 -9.18171 -2.60756 42.3722 1.9e-05 0 76.4724 -5.61732 3.89374 17.3 -4.44089e-16 3e-06 21.4546 -1e-06 0.003093 0.103456 1.85782 -10.5485 1.461 -1.00943 172.832 43.5 -2.7e-05 4e-06 -18.8985 8.07697 2.05954 42.3723 -8.88178e-16 1e-05 81.508 10.9389 -3.22687 17.3 -6e-06 1.7e-05 21.4546 -1.9e-05 -0.003116 6.90197 -2.60373 -3e-06 7.27833 -0.489085 -0.624144 12.5881 1e-05 8e-06 4.55153 -1.00727 -1.15252 12.3432 -1.8e-05 -5e-06 4.25216 -1.01033 -1.07719 25.8329 2.3e-05 7e-06 6.04784 1.5335 -10.8992 11.7666 -8e-06 -6e-06 -29.9508 -1.46513 12.8866 19.7459 -1.48035 6.0001 -176.045 4.05928 -91.3786 11.2841 1.8e-05 -2e-05 27.9963 -16.0606 10.2815 33 -1.3e-05 1.9e-05 -34.5869 -4.91759 -15.3827 25.2 3.2e-05 1.1e-05 12.4685 28.1232 -4.07064 19.7461 -1.48036 -6.00008 176.291 6.12697 94.1503 11.2841 0 -1e-06 -13.0129 14.378 -6.72486 33.0001 1.6e-05 -1e-06 -18.2925 -0.749287 14.8667 25.1998 0.000123 0.000432 7.6876 -13.5591 2.91572 
